<svg fill="none" height="50" viewBox="0 0 98 50" width="98" xmlns="http://www.w3.org/2000/svg"><g fill="#fff"><path d="m.5 0h16l9.9 30.5h.2l8.3-30.5h16.4l9 30.5h.2l9.1-30.5h15.2l-17.3 48.6h-14.8l-10.1-32.3h-.2l-9 32.3h-15.1z"/><path d="m79 40c0-1.2667.2333-2.4667.7-3.6.4666-1.1333 1.1-2.1 1.9-2.9.8667-.8667 1.8667-1.5333 3-2s2.3333-.7 3.6-.7c1.2666 0 2.4667.2333 3.6.7s2.1 1.1333 2.9 2c.8666.8 1.5333 1.7667 2 2.9.4666 1.1333.7 2.3333.7 3.6s-.2334 2.4667-.7 3.6c-.4667 1.1333-1.1334 2.1333-2 3-.8.8-1.7667 1.4333-2.9 1.9s-2.3334.7-3.6.7c-1.2667 0-2.4667-.2333-3.6-.7s-2.1333-1.1-3-1.9c-.8-.8667-1.4334-1.8667-1.9-3-.4667-1.1333-.7-2.3333-.7-3.6z"/></g></svg>